<?xml version="1.0" encoding="utf-8"?>
<!-- Generator: Adobe Illustrator 18.0.0, SVG Export Plug-In . SVG Version: 6.00 Build 0)  -->
<!DOCTYPE svg PUBLIC "-//W3C//DTD SVG 1.1//EN" "http://www.w3.org/Graphics/SVG/1.1/DTD/svg11.dtd">
<svg version="1.1" id="Layer_1" xmlns="http://www.w3.org/2000/svg" xmlns:xlink="http://www.w3.org/1999/xlink" x="0px" y="0px"
	 viewBox="145.9 331.7 354.1 138" enable-background="new 145.9 331.7 354.1 138" xml:space="preserve">
<rect x="145.9" y="331.7" fill="#ED1D24" width="30.7" height="137.8"/>
<path fill="#ED1D24" d="M386.7,344.8c0-6-8.7-13.1-16.7-13.1h-37.3v13.1c0,0-0.6-0.3-1.8-4.2c-1.2-5.1-6.9-8.9-14.6-8.9h-71v111.3
	h-16.4l-21.5-52.2l30.1-59.1h-31.9l-29.8,59.1l31.9,78.8h252.8c10.7,0,21.5-5.1,26.6-9.8c18.5-18.2,13.1-35.8,8.9-44.2
	c-6.6-12.8-21.5-19.4-21.5-19.4s10.7-6.3,15.5-13.1c6.6-9.5,6-23.9-1.5-33.4c-9.2-11.9-19.1-17.6-38.5-17.9c-7.8-0.3-21.5,0-21.5,0
	h-30.7v100.8h30.7v-72.8c0,0,12.8-0.6,24.5,0c12.2,0.6,13.7,22.4-0.9,22.7c-7.8,0.3-16.7,0-16.7,0v25.7c0,0,11.6,0.3,16.4,0
	c13.4-0.9,19.7,33.4-0.3,34.9c-4.5,0.3-8.7,0-8.7,0H276.4v-82.6h25.7v72.2h30.7v-72.2h23.3v72.2h30.7v-72.2v-15.7H386.7z"/>
</svg>
